# xmcd
#
# Track frame offsets:
#	150
#	14152
#	50499
#
# Disc length: 1179 seconds
#
# Revision: 0
# Processed by: cddbd v1.5.2PL0 Copyright (c) Steve Scherf et al.
# Submitted via: dBpowerAMP V4.0
#
DISCID=23049903
DTITLE=Pepe Deluxe - Girl! (Single)
DYEAR=1900
DGENRE=
TTITLE0=Girl! (Pepe Deluxe Edit)
TTITLE1=Girl! (Jori Hulkkonen House Of Boy Mix)
TTITLE2=Girl! (Radio Slave Mix)
EXTD=
EXTT0=
EXTT1=
EXTT2=
PLAYORDER=
